<svg xmlns="http://www.w3.org/2000/svg" width="920" height="620" viewBox="0 0 920 620" font-family="Helvetica,Arial,sans-serif"><rect width="920" height="620" fill="white"/>
<text x="460.0" y="30.0" text-anchor="middle" font-size="18" font-weight="bold" fill="#222b35">Efficiency vs Rider-Income Fairness  -  Pareto front</text>
<text x="460.0" y="50.0" text-anchor="middle" font-size="11" font-weight="normal" fill="#5a6572">rider-scarce demo: 60 orders / 20 couriers, capacity 4  (alpha sweep on a transparent demo greedy)</text>
<line x1="92" y1="92.0" x2="470" y2="92.0" stroke="#e3e7ec"/>
<text x="84.0" y="96.0" text-anchor="end" font-size="10" font-weight="normal" fill="#5a6572">4733</text>
<line x1="92" y1="177.6" x2="470" y2="177.6" stroke="#e3e7ec"/>
<text x="84.0" y="181.6" text-anchor="end" font-size="10" font-weight="normal" fill="#5a6572">4439</text>
<line x1="92" y1="263.2" x2="470" y2="263.2" stroke="#e3e7ec"/>
<text x="84.0" y="267.2" text-anchor="end" font-size="10" font-weight="normal" fill="#5a6572">4146</text>
<line x1="92" y1="348.8" x2="470" y2="348.8" stroke="#e3e7ec"/>
<text x="84.0" y="352.8" text-anchor="end" font-size="10" font-weight="normal" fill="#5a6572">3852</text>
<line x1="92" y1="434.4" x2="470" y2="434.4" stroke="#e3e7ec"/>
<text x="84.0" y="438.4" text-anchor="end" font-size="10" font-weight="normal" fill="#5a6572">3558</text>
<line x1="92" y1="520.0" x2="470" y2="520.0" stroke="#e3e7ec"/>
<text x="84.0" y="524.0" text-anchor="end" font-size="10" font-weight="normal" fill="#5a6572">3265</text>
<line x1="92.0" y1="92" x2="92.0" y2="520" stroke="#e3e7ec"/>
<text x="92.0" y="536.0" text-anchor="middle" font-size="10" font-weight="normal" fill="#5a6572">0.062</text>
<line x1="167.6" y1="92" x2="167.6" y2="520" stroke="#e3e7ec"/>
<text x="167.6" y="536.0" text-anchor="middle" font-size="10" font-weight="normal" fill="#5a6572">0.089</text>
<line x1="243.2" y1="92" x2="243.2" y2="520" stroke="#e3e7ec"/>
<text x="243.2" y="536.0" text-anchor="middle" font-size="10" font-weight="normal" fill="#5a6572">0.117</text>
<line x1="318.8" y1="92" x2="318.8" y2="520" stroke="#e3e7ec"/>
<text x="318.8" y="536.0" text-anchor="middle" font-size="10" font-weight="normal" fill="#5a6572">0.144</text>
<line x1="394.4" y1="92" x2="394.4" y2="520" stroke="#e3e7ec"/>
<text x="394.4" y="536.0" text-anchor="middle" font-size="10" font-weight="normal" fill="#5a6572">0.171</text>
<line x1="470.0" y1="92" x2="470.0" y2="520" stroke="#e3e7ec"/>
<text x="470.0" y="536.0" text-anchor="middle" font-size="10" font-weight="normal" fill="#5a6572">0.198</text>
<line x1="92" y1="520" x2="470" y2="520" stroke="#222b35"/>
<line x1="92" y1="92" x2="92" y2="520" stroke="#222b35"/>
<text x="281.0" y="560.0" text-anchor="middle" font-size="12" font-weight="normal" fill="#222b35">Rider income Gini  (lower = fairer)</text>
<rect x="413.0" y="548.0" width="85.8" height="16" rx="8" fill="#a05a2c" opacity="0.14"/><text x="455.9" y="560.0" text-anchor="middle" font-size="10" font-weight="bold" fill="#a05a2c">SYNTHETIC</text>
<text x="30.0" y="306.0" text-anchor="middle" font-size="12" font-weight="normal" fill="#222b35" transform="rotate(-90 30.0 306.0)">Expected cost  (lower = better)</text>
<rect x="18.0" y="68.0" width="44.8" height="16" rx="8" fill="#1f3a5f" opacity="0.14"/><text x="40.4" y="80.0" text-anchor="middle" font-size="10" font-weight="bold" fill="#1f3a5f">REAL</text>
<polyline points="426.6,484.3 402.2,481.8 329.4,469.2 300.8,428.2 123.5,399.4" fill="none" stroke="#2a9d8f" stroke-width="3" stroke-dasharray="0"/>
<defs><marker id="arr" markerWidth="10" markerHeight="10" refX="7" refY="3" orient="auto"><path d="M0,0 L8,3 L0,6 Z" fill="#d1495b"/></marker></defs>
<line x1="438.5" y1="469.6" x2="181.1" y2="286.1" stroke="#d1495b" stroke-width="2.2" stroke-dasharray="6,4" marker-end="url(#arr)"/>
<rect x="110" y="118" width="252" height="92" rx="8" fill="#fff6f6" stroke="#d1495b" stroke-width="1.2"/>
<text x="122.0" y="138.0" text-anchor="start" font-size="12" font-weight="bold" fill="#d1495b">Price of fairness  (alpha 0 -&gt; 0.7):</text>
<text x="122.0" y="158.0" text-anchor="start" font-size="11.5" font-weight="normal" fill="#222b35">rider Gini  -49.4%   (fairer)</text>
<text x="122.0" y="176.0" text-anchor="start" font-size="11.5" font-weight="normal" fill="#222b35">expected cost  +18.3%   (REAL)</text>
<text x="122.0" y="194.0" text-anchor="start" font-size="11.5" font-weight="normal" fill="#222b35">fulfillment  -15.4%   (REAL)</text>
<circle cx="438.5" cy="469.6" r="5" fill="#9aa5b1" stroke="white" stroke-width="1.2"/>
<text x="446.5" y="463.6" text-anchor="start" font-size="9.5" font-weight="normal" fill="#7b8794">a=0.0</text>
<circle cx="426.6" cy="484.3" r="6" fill="#2a9d8f" stroke="white" stroke-width="1.2"/>
<text x="434.6" y="478.3" text-anchor="start" font-size="9.5" font-weight="normal" fill="#2a9d8f">a=0.1</text>
<circle cx="402.2" cy="481.8" r="6" fill="#2a9d8f" stroke="white" stroke-width="1.2"/>
<text x="410.2" y="475.8" text-anchor="start" font-size="9.5" font-weight="normal" fill="#2a9d8f">a=0.2</text>
<circle cx="329.4" cy="469.2" r="6" fill="#2a9d8f" stroke="white" stroke-width="1.2"/>
<text x="337.4" y="463.2" text-anchor="start" font-size="9.5" font-weight="normal" fill="#2a9d8f">a=0.3</text>
<circle cx="300.8" cy="428.2" r="6" fill="#2a9d8f" stroke="white" stroke-width="1.2"/>
<text x="308.8" y="422.2" text-anchor="start" font-size="9.5" font-weight="normal" fill="#2a9d8f">a=0.4</text>
<circle cx="123.5" cy="399.4" r="6" fill="#2a9d8f" stroke="white" stroke-width="1.2"/>
<text x="131.5" y="393.4" text-anchor="start" font-size="9.5" font-weight="normal" fill="#2a9d8f">a=0.5</text>
<circle cx="229.3" cy="326.3" r="5" fill="#9aa5b1" stroke="white" stroke-width="1.2"/>
<text x="237.3" y="320.3" text-anchor="start" font-size="9.5" font-weight="normal" fill="#7b8794">a=0.6</text>
<circle cx="181.1" cy="286.1" r="5" fill="#9aa5b1" stroke="white" stroke-width="1.2"/>
<text x="189.1" y="280.1" text-anchor="start" font-size="9.5" font-weight="normal" fill="#7b8794">a=0.7</text>
<circle cx="181.0" cy="227.8" r="5" fill="#9aa5b1" stroke="white" stroke-width="1.2"/>
<text x="189.0" y="221.8" text-anchor="start" font-size="9.5" font-weight="normal" fill="#7b8794">a=0.8</text>
<circle cx="169.2" cy="242.3" r="5" fill="#9aa5b1" stroke="white" stroke-width="1.2"/>
<text x="177.2" y="236.3" text-anchor="start" font-size="9.5" font-weight="normal" fill="#7b8794">a=0.9</text>
<circle cx="230.5" cy="127.7" r="5" fill="#9aa5b1" stroke="white" stroke-width="1.2"/>
<text x="238.5" y="121.7" text-anchor="start" font-size="9.5" font-weight="normal" fill="#7b8794">a=1.0</text>
<text x="446.5" y="485.6" text-anchor="start" font-size="9.5" font-weight="normal" fill="#9aa5b1" style="font-style:italic">dominated by a=0.1</text>
<text x="498.0" y="112.0" text-anchor="start" font-size="12" font-weight="bold" fill="#222b35">Legend</text>
<circle cx="506" cy="134" r="6" fill="#2a9d8f"/>
<text x="520.0" y="138.0" text-anchor="start" font-size="11" font-weight="normal" fill="#222b35">non-dominated front</text>
<text x="520.0" y="154.0" text-anchor="start" font-size="9.5" font-weight="normal" fill="#5a6572">alpha in {0.1,0.2,0.3,0.4,0.5}</text>
<circle cx="506" cy="174" r="5" fill="#9aa5b1"/>
<text x="520.0" y="178.0" text-anchor="start" font-size="11" font-weight="normal" fill="#222b35">dominated point</text>
<line x1="498" y1="198" x2="514" y2="198" stroke="#d1495b" stroke-width="2.2" stroke-dasharray="6,4"/>
<text x="520.0" y="202.0" text-anchor="start" font-size="11" font-weight="normal" fill="#222b35">price-of-fairness move</text>
<text x="92.0" y="604.0" text-anchor="start" font-size="9.5" font-weight="normal" fill="#7b8794">Honest: no alpha corner equals production solver_v2; a=0 is sign-aligned with the official objective only. Gini/wage axes are SYNTHETIC; cost/fulfillment are REAL (official group_expected_cost).</text>
</svg>